<?xml version="1.0" encoding="utf-8"?>
<!-- Generator: Adobe Illustrator 21.1.0, SVG Export Plug-In . SVG Version: 6.00 Build 0)  -->
<svg version="1.1" id="圖層_1" xmlns="http://www.w3.org/2000/svg" xmlns:xlink="http://www.w3.org/1999/xlink" x="0px" y="0px"
	 viewBox="0 0 235.6 357.6" style="enable-background:new 0 0 235.6 357.6;" xml:space="preserve">
<style type="text/css">
	.st0{fill:#4E17A5;}
</style>
<title>arwen</title>
<path class="st0" d="M172.5,66.4V51.6c0.7-0.1,1.4-0.2,2.1-0.5c2.6,2.4,12.5,11.2,20.5,13.4c1,0.3,2,0.4,3.1,0.4
	c4.1,0,8.1-2.1,10.4-5.8c2.8-4.5,2.2-9.8-1.7-14.3c-8.1-9.3-26.6-4.4-29.8-3.5c-1.2-1.4-3-2.3-5-2.3c-1,0-2,0.2-2.9,0.6
	c-3.2-3-16.7-14.7-27.7-10.4c-5.5,2.2-8.6,6.6-8.2,11.9c0.4,5.3,4.3,9.8,9.4,11c1.8,0.4,3.7,0.5,5.8,0.5c7.8,0,16.6-2.3,18.9-2.9
	c0.6,0.6,1.3,1.1,2.1,1.4v14c-51-19.7-103.8,26.5-103.8,26.5C-5.5,172.1,3.7,256.4,60.1,291l10.7,48.4l2.9-0.7L63.7,293
	c15.9,8.9,35.2,13.9,57.3,14.2c11.7,0.1,22.2-2,31.6-5.7l9.6,43.2l2.9-0.7l-9.7-43.8c49.9-22.2,68.3-92.4,68.6-131.1
	C224.2,142,224,88.5,172.5,66.4z M178.4,44.1c4-1.1,19.7-4.7,26.2,2.7c3,3.5,3.6,7.4,1.5,10.8c-2.1,3.4-6.3,5.1-10.1,4.1
	C189,59.7,180,52,177,49.3c0.9-1.1,1.5-2.5,1.5-4C178.5,44.9,178.5,44.5,178.4,44.1z M165.8,47.1c-3.9,1-15.4,3.7-22.4,2.1
	c-3.9-0.9-6.8-4.3-7.1-8.3c-0.3-3.9,2-7.2,6.3-8.8c8.9-3.5,20.9,6.5,24.2,9.6c-0.8,1-1.3,2.3-1.3,3.7
	C165.5,46,165.6,46.5,165.8,47.1z M125.1,72.9l-0.1-3l19.8-0.8l0.1,3L125.1,72.9z M164.5,102c-0.8,0.7-2,1.3-3.8,1.3
	c0.9,1.1,1.5,2.4,1.5,3.7c0,1.1-0.3,2.6-2.2,3.9c-2.4,1.7-3.9,2.4-5.3,2.4c-1.2,0-2.3-0.5-4-1.3c-0.7-0.4-1.6-0.8-2.6-1.2l1.2-2.8
	c1.1,0.5,2,0.9,2.7,1.3c2.9,1.4,3,1.5,6.3-0.9c0.9-0.6,0.9-1.2,0.9-1.4c0-1.7-3.1-4.2-4.6-5.2l1.4-2.7c3,1.2,5.4,1.4,6.5,0.5
	c0.9-0.8,1.2-2.4,0.7-4.5c-0.2-1-0.7-1.4-1.1-1.6c-1.9-1-5.6,0.4-6.8,0.9l-2.3,1.1l2.2-26.3l3,0.3L156.4,91c2-0.6,4.9-1.1,7.1,0
	c1.4,0.7,2.3,2,2.7,3.6C166.9,97.9,166.3,100.5,164.5,102z M168.5,45.4c0-1.8,1.6-3.3,3.5-3.3s3.5,1.5,3.5,3.3
	c0,1.8-1.6,3.3-3.5,3.3S168.5,47.2,168.5,45.4z M182.8,87.5l-12.3-6.8l1.4-2.6l12.3,6.8L182.8,87.5z"/>
</svg>
