<?xml version="1.0" encoding="utf-8"?>
<!-- Generator: Adobe Illustrator 21.0.2, SVG Export Plug-In . SVG Version: 6.00 Build 0)  -->
<svg version="1.1" id="圖層_1" xmlns="http://www.w3.org/2000/svg" xmlns:xlink="http://www.w3.org/1999/xlink" x="0px" y="0px"
	 viewBox="0 0 119.7 91" style="enable-background:new 0 0 119.7 91;" xml:space="preserve">
<style type="text/css">
	.st0{fill:#4E17A5;}
</style>
<title>coco</title>
<g>
	<ellipse transform="matrix(0.4302 -0.9027 0.9027 0.4302 5.1917 97.8311)" class="st0" cx="80.1" cy="44.8" rx="5.2" ry="5.2"/>
	<path class="st0" d="M88,14.5c-0.2-4.5-3.4-8.4-8-9.2c-5.3-1-10.5,2.5-11.5,7.8l-8.4,44.5c3.3,0.6,6.6,0.6,9.9-0.1
		c6.3-1.5,8.9,8.2,2.7,9.6c-4.8,1.1-9.6,1.2-14.4,0.3L56,79.3c-1,5.3,2.5,10.5,7.8,11.5c4.2,0.8,8.3-1.2,10.3-4.8
		c22.6,0.4,41.7-11.2,45-28.6C122.5,40.1,109.1,22.4,88,14.5z M86.3,47.8c-1.6,3.4-5.7,4.9-9.1,3.2c-3.4-1.6-4.9-5.7-3.2-9.1
		c1-2.1,2.9-3.5,5.1-3.8l0.8-3.1c0.1-0.4,0.6-0.7,1-0.6c0.4,0.1,0.7,0.6,0.6,1L80.7,38c0.4,0,0.7,0.1,1.1,0.2l1-2.4
		c0.2-0.4,0.7-0.6,1.1-0.4c0.4,0.2,0.6,0.7,0.4,1.1l-1,2.3c0.3,0.2,0.6,0.3,0.9,0.5l1.3-2c0.2-0.4,0.8-0.5,1.2-0.3
		c0.4,0.2,0.5,0.8,0.3,1.2l-1.4,2.3c0,0,0,0,0,0C87,42.5,87.5,45.3,86.3,47.8z"/>
</g>
<g>
	<circle class="st0" cx="41.4" cy="36.7" r="5.2"/>
	<path class="st0" d="M41.1,60.4c-6.1-2.1-3.4-11.8,2.7-9.6c4.1,1.4,7.7,4.1,11.8,5.6c0.4,0.1,0.7,0.2,1.1,0.4l8.5-45
		c1-5.3-2.5-10.5-7.8-11.5c-4.8-0.9-9.4,1.8-11,6.2C25.1,7.1,7.6,18.4,4.5,35c-3.2,16.7,9.1,33.6,28.7,42c0.4,4.3,3.5,8,8,8.8
		c5.3,1,10.5-2.5,11.5-7.8l2.2-11.4C49.9,65,45.8,62,41.1,60.4z M34.5,36.7c0-2.7,1.6-5.1,3.9-6.2c0,0,0,0,0,0L38,27.8
		c-0.1-0.5,0.3-0.9,0.7-0.9c0.5-0.1,0.9,0.3,0.9,0.7l0.3,2.4c0.3-0.1,0.7-0.1,1-0.1l0.1-2.5c0-0.5,0.4-0.8,0.9-0.8
		c0.5,0,0.8,0.4,0.8,0.9l-0.1,2.6c0.4,0.1,0.7,0.2,1,0.3l0.5-2.7c0.1-0.5,0.5-0.7,1-0.7c0.5,0.1,0.7,0.5,0.7,1L45.3,31
		c1.8,1.2,2.9,3.3,2.9,5.6c0,3.8-3.1,6.9-6.9,6.9C37.6,43.5,34.5,40.5,34.5,36.7z"/>
</g>
</svg>
