<svg id="圖層_1" data-name="圖層 1" xmlns="http://www.w3.org/2000/svg" width="100" height="100" viewBox="0 0 100 100"><defs><style>.cls-1{fill:#4e17a5;}</style></defs><title>icon-caco</title><circle class="cls-1" cx="64.66" cy="41.84" r="4.18" transform="translate(21.48 105.61) rotate(-88.8)"/><path class="cls-1" d="M60.44,17a7.8,7.8,0,0,0-8.91-4.1,7.94,7.94,0,0,0-5.85,9.52l8.56,35.4a20.41,20.41,0,0,0,7.22-3.35c4.12-3.18,9.24,3.07,5.15,6.14a28.11,28.11,0,0,1-10.46,5l2.25,9.48a7.94,7.94,0,0,0,9.52,5.85,7.78,7.78,0,0,0,6-6.92c16.7-7.18,26.86-22,23.53-35.85S78.52,15.83,60.44,17ZM70.2,42a5.49,5.49,0,1,1-11-.26,5.34,5.34,0,0,1,2.48-4.47l-.44-2.54a.66.66,0,0,1,1.31-.24l.27,2.17a3.42,3.42,0,0,1,.87-.22l-.06-2.09a.67.67,0,1,1,1.33,0l0,2c.29,0,.54,0,.83.07l.29-1.9a.7.7,0,0,1,1.4.16l-.27,2.15h0A5.86,5.86,0,0,1,70.2,42Z"/><circle class="cls-1" cx="33.62" cy="48.7" r="4.18" transform="translate(-17.05 18.13) rotate(-24.28)"/><path class="cls-1" d="M41.24,66.17c-5.17.48-6.39-7.53-1.2-7.93,3.47-.33,7,.46,10.5.2a3.92,3.92,0,0,1,.94-.07l-8.65-35.8a7.94,7.94,0,0,0-9.52-5.85,7.84,7.84,0,0,0-6,8.18C11.88,32.39,2.79,46.46,6,59.66S23.79,81.28,40.94,81a7.85,7.85,0,0,0,8.77,3.8,7.94,7.94,0,0,0,5.85-9.52L53.4,66.15C49.21,66.63,45.21,65.79,41.24,66.17ZM28.56,51a5.56,5.56,0,0,1,.81-5.83h0L28.18,43.3a.65.65,0,0,1,1.11-.68l1,1.66a2.74,2.74,0,0,1,.7-.4L30.25,42a.68.68,0,0,1,1.28-.49l.79,1.94c.33-.06.58-.08.83-.11l-.53-2.14A.69.69,0,0,1,34,40.87l.63,2.36a5.38,5.38,0,0,1,4,3.15,5.56,5.56,0,0,1-2.78,7.34A5.47,5.47,0,0,1,28.56,51Z"/></svg>