<svg id="圖層_1" data-name="圖層 1" xmlns="http://www.w3.org/2000/svg" width="100" height="100" viewBox="0 0 100 100"><defs><style>.cls-1{fill:#4e17a5;}</style></defs><title>icon-ec</title><path class="cls-1" d="M99.92,109.25c-2.83-1.77-8.53-1.19-12.66-.44,3.67-20.53,1.56-41.82-2.16-59.7L96,49.45l0-1.3-11.23-.34q-.4-1.82-.8-3.6l9.46-.47-.06-1.3-9.69.49A224.15,224.15,0,0,0,71.38,5.46L61,31.41H37l-2.59-24S20.78,35.95,20.13,43.73a38.55,38.55,0,0,0-4.53,4l-11.08.58.07,1.3L14.37,49A16,16,0,0,0,13,50.86l.45.5L3,56.12l.54,1.18,10.81-4.92,4.48,5s-2.6,9.73-1.95,35S34.42,143,34.42,143c3.24-7.77,3.89-18.81,3.89-18.81H71.4l5.19,14.92a91.17,91.17,0,0,0,9.34-23.85c6.87-.64,4.53,2.27,1.69,5.68-3.24,3.89.65,9.73,9.73,4.54S105.11,112.49,99.92,109.25ZM33,42.93l-.43,2.28a1.16,1.16,0,1,1-2.28-.43l.43-2.28a1.16,1.16,0,0,1,2.28.43Zm12.48,8.46H43.19a1.16,1.16,0,1,1,0-2.32h2.32a1.16,1.16,0,0,1,0,2.32Zm18.32-5.62a1.16,1.16,0,0,1-2.32-.17l.17-2.32a1.16,1.16,0,1,1,2.32.17Z"/></svg>