<svg id="圖層_1" data-name="圖層 1" xmlns="http://www.w3.org/2000/svg" width="100" height="100" viewBox="0 0 100 100"><defs><style>.cls-1{fill:#4e17a5;}</style></defs><title>icon-chun</title><g id="_7359bd2e-2176-44e6-9748-92b8e8d43012" data-name="7359bd2e-2176-44e6-9748-92b8e8d43012"><g id="_788a39c1-8c10-46b9-893c-d813fd36ea68" data-name="788a39c1-8c10-46b9-893c-d813fd36ea68"><path class="cls-1" d="M60.12,18.29l-.09.06.2.12Z"/><path class="cls-1" d="M91.85,41.39c-.32-1-2-2-2-2,1-6.06-1-11.11-3-7.07-1.45,2.9-7.57,4.76-10.92,5.58a48.84,48.84,0,0,0-5.64-10l-.24.2a5.45,5.45,0,0,1-2.62,1,6.66,6.66,0,0,1-.83.05c-1.83,0-3.26-.81-3.42-2-.18-1.4,1.4-2.69,3.61-3l.35,0a34.77,34.77,0,0,0-6.86-5.66l.26.41-4,2.53-.37-.59L60,18.34A28.87,28.87,0,0,0,46.5,14.05c.21-1.16.55-3.1.78-4.7a57,57,0,0,0,.4-5.84L47,3.42c-.06,1-.15,3.22-.41,5.93-.1,1-.52,3.34-.77,4.67l-1,0h0c-.46-1.17-1.12-2.77-1.71-4s-3.25-4.74-3.25-4.74l-.62.35S42,9.87,42.72,11.1c.36.67.87,1.88,1.29,2.91-19.31.51-33.63,19.75-34.89,43.34C7.37,89.85,24.75,97.9,44.47,97.9c18.39,0,36-8.23,36.25-34.58C89.11,60.32,92.82,44.3,91.85,41.39ZM36.25,27c-1.64,0-3-.89-3-2s1.33-2,3-2,3,.89,3,2S37.89,27,36.25,27Zm16.2,9.37c-7.07,1-11.11,0-13.13-1,1-3,2.87-6.9,11.11-8.08a13.51,13.51,0,0,1,11.11,3S59.52,35.32,52.44,36.34Zm7.9-11.9c-1.23.37-2.41,0-2.65-.76s.57-1.72,1.8-2.09,2.41,0,2.65.76S61.57,24.07,60.34,24.43Z"/></g></g></svg>