<svg id="圖層_1" data-name="圖層 1" xmlns="http://www.w3.org/2000/svg" width="100" height="100" viewBox="0 0 100 100"><defs><style>.cls-1{fill:#4e17a5;}</style></defs><title>icon-arwen</title><path class="cls-1" d="M72.8,27.68V21.57a2.74,2.74,0,0,0,.86-.2c1.08,1,5.18,4.63,8.52,5.54a4.84,4.84,0,0,0,1.27.17,5.11,5.11,0,0,0,4.3-2.39A4.83,4.83,0,0,0,87,18.75c-3.34-3.84-11-1.83-12.35-1.44a2.74,2.74,0,0,0-3.26-.68c-1.31-1.23-6.92-6.11-11.48-4.33a4.83,4.83,0,0,0-3.4,4.92,5.08,5.08,0,0,0,3.9,4.55,11.18,11.18,0,0,0,2.39.23,33.37,33.37,0,0,0,7.84-1.21,2.71,2.71,0,0,0,.89.59v5.79c-21.13-8.16-43,11-43,11C-1,71.49,2.86,106.43,26.23,120.74l4.45,20,1.21-.27-4.2-18.92a49.42,49.42,0,0,0,23.77,5.86,34.06,34.06,0,0,0,13.09-2.38l4,17.92,1.21-.27-4-18.14c20.66-9.2,28.31-38.3,28.43-54.32C94.23,59,94.15,36.85,72.8,27.68Zm2.43-9.24c1.65-.44,8.18-2,10.85,1.12A3.6,3.6,0,0,1,86.69,24,3.83,3.83,0,0,1,82.5,25.7c-2.88-.78-6.58-4-7.82-5.09a2.54,2.54,0,0,0,.55-2.18ZM70,19.68c-1.61.42-6.38,1.53-9.29.88a3.82,3.82,0,0,1-2.93-3.44,3.6,3.6,0,0,1,2.61-3.67c3.71-1.45,8.66,2.7,10,4A2.51,2.51,0,0,0,70,19.68ZM53.14,30.39l0-1.24,8.18-.31,0,1.24ZM69.49,42.45a2.47,2.47,0,0,1-1.56.54,2.68,2.68,0,0,1,.63,1.52,1.86,1.86,0,0,1-.9,1.61,4.06,4.06,0,0,1-2.2,1,3.92,3.92,0,0,1-1.67-.54c-.3-.15-.65-.32-1.08-.51l.5-1.14c.46.2.83.38,1.13.53,1.21.59,1.23.6,2.61-.37.38-.27.38-.48.37-.56,0-.72-1.29-1.75-1.9-2.13l.57-1.1c1.24.52,2.23.58,2.7.19s.48-1,.29-1.87a.86.86,0,0,0-.46-.66c-.79-.39-2.34.15-2.82.37l-1,.44.92-10.9,1.24.1-.75,8.87a4.23,4.23,0,0,1,2.93,0,2.11,2.11,0,0,1,1.12,1.51A3,3,0,0,1,69.49,42.45ZM71.14,19a1.45,1.45,0,1,1,1.45,1.37A1.41,1.41,0,0,1,71.14,19Zm5.92,17.45L72,33.62l.6-1.09,5.08,2.8Z"/></svg>