<svg xmlns="http://www.w3.org/2000/svg" width="261.12" height="39.31" viewBox="0 0 261.12 39.31"><defs><style>.cls-1{fill:#fff;}</style></defs><title>q-header-title</title><g id="圖層_2" data-name="圖層 2"><g id="內頁"><path class="cls-1" d="M29.62,36.62a23.63,23.63,0,0,1-4.74,2,18.6,18.6,0,0,1-5.23.71A19.17,19.17,0,0,1,12,37.77,19.81,19.81,0,0,1,1.53,27.32,19.16,19.16,0,0,1,0,19.65,19.16,19.16,0,0,1,1.53,12,19.8,19.8,0,0,1,12,1.53,19.17,19.17,0,0,1,19.65,0,19.48,19.48,0,0,1,33.58,5.75,20.48,20.48,0,0,1,37.8,12a18.88,18.88,0,0,1,1.56,7.66,18.46,18.46,0,0,1-.77,5.45,22,22,0,0,1-2.14,4.79l1,1a5.61,5.61,0,0,1,1.12,1.7,4.28,4.28,0,0,1,.36,1.59,4.33,4.33,0,0,1-.41,1.86,5.52,5.52,0,0,1-2.66,2.66,4.33,4.33,0,0,1-1.86.41,4.68,4.68,0,0,1-3.28-1.48ZM10.46,19.82a9.23,9.23,0,0,0,.71,3.61,9.06,9.06,0,0,0,4.93,4.93,9.24,9.24,0,0,0,3.61.71q.55,0,1.12-.05a8.47,8.47,0,0,0,1.07-.17L17.24,24.2a4.49,4.49,0,0,1-1.07-1.56,4.81,4.81,0,0,1-.3-1.72,4.34,4.34,0,0,1,.41-1.86,5.3,5.3,0,0,1,2.6-2.6A4.32,4.32,0,0,1,20.75,16,4.18,4.18,0,0,1,24,17.41l4.76,4.76a7.8,7.8,0,0,0,.33-2.35,9,9,0,0,0-.74-3.61,9.29,9.29,0,0,0-2-3,9.87,9.87,0,0,0-3-2,9.2,9.2,0,0,0-7.23,0,9.5,9.5,0,0,0-3,2,9.11,9.11,0,0,0-2,3A9.24,9.24,0,0,0,10.46,19.82Z"/><path class="cls-1" d="M74.34,22.39q0,16.92-15.49,16.92-15.71,0-15.71-16.92V5.47a4.85,4.85,0,0,1,1.59-3.89,5.79,5.79,0,0,1,7.47,0,4.9,4.9,0,0,1,1.56,3.89V24q0,4.71,5,4.71t5-4.71V5.47a5.46,5.46,0,0,1,.44-2.24,4.9,4.9,0,0,1,1.15-1.64A5,5,0,0,1,67,.58a5.69,5.69,0,0,1,2-.36,5.6,5.6,0,0,1,3.78,1.37,4.86,4.86,0,0,1,1.59,3.89Z"/><path class="cls-1" d="M83.76,38.92q-5.26,0-5.26-5.37V5.75Q78.5.38,83.76.38h18.06A4.94,4.94,0,0,1,105.74,2a5.53,5.53,0,0,1,1.4,3.78,5.53,5.53,0,0,1-1.4,3.78,4.93,4.93,0,0,1-3.91,1.59H89.07v3.67H99.69a4.55,4.55,0,0,1,3.59,1.45,5.19,5.19,0,0,1,0,6.84,4.54,4.54,0,0,1-3.59,1.45H89.07v3.72h12.75a5,5,0,0,1,3.91,1.56,5.43,5.43,0,0,1,1.4,3.75,5.53,5.53,0,0,1-1.4,3.78,4.93,4.93,0,0,1-3.91,1.59Z"/><path class="cls-1" d="M139.32,26.66q0,12.26-12,12.26H116.77a5.34,5.34,0,0,1-2.3-.46,5,5,0,0,1-1.64-1.21,4.93,4.93,0,0,1-1-1.7,6.11,6.11,0,0,1-.33-2,6,6,0,0,1,.33-1.94,4.73,4.73,0,0,1,1-1.7,5.28,5.28,0,0,1,1.7-1.21,5.53,5.53,0,0,1,2.33-.46h11.06a2,2,0,0,0,1.61-.63,2.07,2.07,0,0,0,.52-1.34,2.25,2.25,0,0,0-.52-1.42,1.94,1.94,0,0,0-1.61-.66h-5.47q-5.64,0-8.49-2.74t-2.85-8.7q0-12.37,12.1-12.37h8.54a5.86,5.86,0,0,1,2.41.46,5.55,5.55,0,0,1,1.75,1.21A4.88,4.88,0,0,1,137,3.75a5.56,5.56,0,0,1,.36,1.94,5.77,5.77,0,0,1-.36,2,5.11,5.11,0,0,1-1.07,1.75,5.24,5.24,0,0,1-1.78,1.23,6,6,0,0,1-2.44.47h-9.2a1.89,1.89,0,0,0-1.59.63,2.21,2.21,0,0,0-.49,1.4,2.14,2.14,0,0,0,.49,1.34,1.89,1.89,0,0,0,1.59.63H128q5.8,0,8.57,2.79T139.32,26.66Z"/><path class="cls-1" d="M161.6,33.83a4.9,4.9,0,0,1-1.59,4,5.66,5.66,0,0,1-3.78,1.34,5.48,5.48,0,0,1-3.7-1.34,5,5,0,0,1-1.56-4V11.11h-3.72a4.93,4.93,0,0,1-3.91-1.59,5.53,5.53,0,0,1-1.4-3.78A5.53,5.53,0,0,1,143.34,2,4.94,4.94,0,0,1,147.26.38h18A5,5,0,0,1,169.16,2a5.48,5.48,0,0,1,1.42,3.78,5.47,5.47,0,0,1-1.42,3.78,5,5,0,0,1-3.94,1.59H161.6Z"/><path class="cls-1" d="M184.38,33.83a4.9,4.9,0,0,1-1.59,4,5.88,5.88,0,0,1-7.47,0,5,5,0,0,1-1.56-4V5.47a4.9,4.9,0,0,1,1.56-3.89,5.79,5.79,0,0,1,7.47,0,4.86,4.86,0,0,1,1.59,3.89Z"/><path class="cls-1" d="M188.15,19.65A19.16,19.16,0,0,1,189.68,12,19.8,19.8,0,0,1,200.14,1.53,19.17,19.17,0,0,1,207.8,0a19.48,19.48,0,0,1,13.93,5.75A20.48,20.48,0,0,1,226,12a18.88,18.88,0,0,1,1.56,7.66A18.87,18.87,0,0,1,226,27.32a20.44,20.44,0,0,1-4.22,6.24,19.47,19.47,0,0,1-13.93,5.75,19.17,19.17,0,0,1-7.66-1.53,19.81,19.81,0,0,1-10.46-10.46A19.16,19.16,0,0,1,188.15,19.65Zm10.78.16a8.52,8.52,0,0,0,.71,3.48,9.17,9.17,0,0,0,1.92,2.82A9.05,9.05,0,0,0,211.34,28a9.14,9.14,0,0,0,2.85-1.89,9,9,0,0,0,1.94-2.82,8.54,8.54,0,0,0,.71-3.48,8.74,8.74,0,0,0-.71-3.5,8.89,8.89,0,0,0-1.94-2.85,9.59,9.59,0,0,0-2.85-1.92,8.85,8.85,0,0,0-7,0,9.21,9.21,0,0,0-2.82,1.92,9.09,9.09,0,0,0-1.92,2.85A8.72,8.72,0,0,0,198.94,19.82Z"/><path class="cls-1" d="M250.94,5.26a4.66,4.66,0,0,1,1.51-3.75A5.41,5.41,0,0,1,256.09.22a5.27,5.27,0,0,1,3.53,1.29,4.66,4.66,0,0,1,1.51,3.75V33.83a5.42,5.42,0,0,1-1.56,3.91,4.62,4.62,0,0,1-1.59,1,5.12,5.12,0,0,1-1.89.36,5.51,5.51,0,0,1-2.57-.66,5.91,5.91,0,0,1-2.19-2.08l-10-14.83V34.11a4.66,4.66,0,0,1-1.51,3.75,5.42,5.42,0,0,1-3.64,1.29,5.16,5.16,0,0,1-3.5-1.29,4.7,4.7,0,0,1-1.48-3.75V5.47a5.65,5.65,0,0,1,.41-2.19,4.9,4.9,0,0,1,1.12-1.67,5,5,0,0,1,1.59-1,4.9,4.9,0,0,1,1.86-.36,5.82,5.82,0,0,1,2.63.63A5.7,5.7,0,0,1,241,2.9l9.91,14.84Z"/></g></g></svg>