<svg xmlns="http://www.w3.org/2000/svg" xmlns:xlink="http://www.w3.org/1999/xlink" width="750" height="234.63" viewBox="0 0 750 234.63"><defs><style>.cls-1{isolation:isolate;}.cls-2{fill:#c2c8f6;}.cls-3,.cls-4{opacity:0.86;}.cls-3{fill:url(#未命名漸層_21);}.cls-4{mix-blend-mode:multiply;fill:url(#未命名漸層_49);}</style><linearGradient id="未命名漸層_21" x1="783.42" y1="-21.51" x2="-74.53" y2="186.98" gradientUnits="userSpaceOnUse"><stop offset="0" stop-color="#8f31ab"/><stop offset="1" stop-color="#361b81"/></linearGradient><linearGradient id="未命名漸層_49" x1="378.1" y1="204.91" x2="375.1" y2="84.91" gradientUnits="userSpaceOnUse"><stop offset="0" stop-color="#8f31ab"/><stop offset="0.5" stop-color="#bfc7ff" stop-opacity="0"/></linearGradient></defs><title>q-header</title><g class="cls-1"><g id="圖層_2" data-name="圖層 2"><g id="內頁"><path class="cls-2" d="M0,209s89,57,306,1,188-64,306-65c79.22-.67,138,17,138,17V0H0Z"/><path class="cls-3" d="M750,155.48s-81-11.54-150-11c-57.6.46-115,13.73-182,25.27-45.8,7.89-152,23.07-270,19.78-71.91-2-148-27.47-148-27.47V0H750Z"/><path class="cls-4" d="M750,155.48s-81-11.54-150-11c-57.6.46-115,13.73-182,25.27-45.8,7.89-152,23.07-270,19.78-71.91-2-148-27.47-148-27.47V0H750Z"/></g></g></g></svg>